<svg width="69" height="36" viewBox="0 0 69 36" fill="none" xmlns="http://www.w3.org/2000/svg">
<path d="M30.45 4.4625L19.25 35H11.8125L0.6125 4.4625H7.175L15.575 28.7437L23.9313 4.4625H30.45ZM37.2285 7.875C36.1493 7.875 35.2452 7.53958 34.516 6.86875C33.816 6.16875 33.466 5.30833 33.466 4.2875C33.466 3.26666 33.816 2.42083 34.516 1.75C35.2452 1.05 36.1493 0.699998 37.2285 0.699998C38.3077 0.699998 39.1973 1.05 39.8973 1.75C40.6264 2.42083 40.991 3.26666 40.991 4.2875C40.991 5.30833 40.6264 6.16875 39.8973 6.86875C39.1973 7.53958 38.3077 7.875 37.2285 7.875ZM40.2473 10.7625V35H34.1223V10.7625H40.2473ZM68.83 22.3562C68.83 23.2312 68.7717 24.0187 68.655 24.7187H50.9363C51.0821 26.4687 51.6946 27.8396 52.7738 28.8312C53.8529 29.8229 55.18 30.3187 56.755 30.3187C59.03 30.3187 60.6488 29.3417 61.6113 27.3875H68.2175C67.5175 29.7208 66.1759 31.6458 64.1925 33.1625C62.2092 34.65 59.7738 35.3938 56.8863 35.3938C54.5529 35.3938 52.4529 34.8833 50.5863 33.8625C48.7488 32.8125 47.305 31.3396 46.255 29.4437C45.2342 27.5479 44.7238 25.3604 44.7238 22.8812C44.7238 20.3729 45.2342 18.1708 46.255 16.275C47.2759 14.3792 48.705 12.9208 50.5425 11.9C52.38 10.8792 54.4946 10.3687 56.8863 10.3687C59.1904 10.3687 61.2467 10.8646 63.055 11.8562C64.8925 12.8479 66.3071 14.2625 67.2988 16.1C68.3196 17.9083 68.83 19.9937 68.83 22.3562ZM62.4863 20.6062C62.4571 19.0312 61.8884 17.7771 60.78 16.8437C59.6717 15.8812 58.3154 15.4 56.7113 15.4C55.1946 15.4 53.9113 15.8667 52.8613 16.8C51.8404 17.7042 51.2134 18.9729 50.98 20.6062H62.4863Z" fill="#FF2C78"/>
</svg>
